<mxfile host="app.diagrams.net" modified="2022-07-24T18:16:10.128Z" agent="5.0 (Windows NT 10.0; Win64; x64) AppleWebKit/537.36 (KHTML, like Gecko) Chrome/103.0.0.0 Safari/537.36" etag="H9nC44XMVPC17kN-McfU" version="20.2.0" type="github">
  <diagram id="OlvYbpYc6oZ3rR2Hr7R8" name="Страница 1">
    <mxGraphModel dx="2062" dy="1154" grid="1" gridSize="10" guides="1" tooltips="1" connect="1" arrows="1" fold="1" page="1" pageScale="1" pageWidth="827" pageHeight="1169" math="0" shadow="0">
      <root>
        <mxCell id="0" />
        <mxCell id="1" parent="0" />
        <mxCell id="JTxRaQrFb4YPlkqaMSQB-1" value="" style="whiteSpace=wrap;html=1;fillColor=#99CCFF;strokeColor=none;" vertex="1" parent="1">
          <mxGeometry x="20" y="35" width="790" height="625" as="geometry" />
        </mxCell>
        <mxCell id="JTxRaQrFb4YPlkqaMSQB-2" value="HotelOwner" style="shape=umlActor;verticalLabelPosition=bottom;verticalAlign=top;html=1;outlineConnect=0;fillColor=#99CCFF;" vertex="1" parent="1">
          <mxGeometry x="700" y="440" width="30" height="60" as="geometry" />
        </mxCell>
        <mxCell id="JTxRaQrFb4YPlkqaMSQB-3" value="User" style="shape=umlActor;verticalLabelPosition=bottom;verticalAlign=top;html=1;outlineConnect=0;fillColor=#99CCFF;" vertex="1" parent="1">
          <mxGeometry x="700" y="180" width="30" height="60" as="geometry" />
        </mxCell>
        <mxCell id="JTxRaQrFb4YPlkqaMSQB-4" value="Moderator" style="shape=umlActor;verticalLabelPosition=bottom;verticalAlign=top;html=1;outlineConnect=0;fillColor=#99CCFF;" vertex="1" parent="1">
          <mxGeometry x="100" y="250" width="30" height="60" as="geometry" />
        </mxCell>
        <mxCell id="JTxRaQrFb4YPlkqaMSQB-5" value="Administrator" style="shape=umlActor;verticalLabelPosition=bottom;verticalAlign=top;html=1;outlineConnect=0;fillColor=#99CCFF;" vertex="1" parent="1">
          <mxGeometry x="100" y="440" width="30" height="60" as="geometry" />
        </mxCell>
        <mxCell id="JTxRaQrFb4YPlkqaMSQB-6" value="Book System" style="text;html=1;align=center;verticalAlign=middle;resizable=0;points=[];autosize=1;strokeColor=none;fillColor=none;fontSize=18;fontStyle=1" vertex="1" parent="1">
          <mxGeometry x="40" y="55" width="140" height="40" as="geometry" />
        </mxCell>
        <mxCell id="JTxRaQrFb4YPlkqaMSQB-7" value="include" style="endArrow=open;endSize=12;dashed=1;html=1;rounded=0;fontSize=12;labelBackgroundColor=none;fontColor=default;exitX=0.5;exitY=0;exitDx=0;exitDy=0;exitPerimeter=0;" edge="1" parent="1" source="JTxRaQrFb4YPlkqaMSQB-5" target="JTxRaQrFb4YPlkqaMSQB-4">
          <mxGeometry x="-0.2308" y="25" width="160" relative="1" as="geometry">
            <mxPoint x="330" y="590" as="sourcePoint" />
            <mxPoint x="490" y="590" as="targetPoint" />
            <Array as="points" />
            <mxPoint as="offset" />
          </mxGeometry>
        </mxCell>
        <mxCell id="JTxRaQrFb4YPlkqaMSQB-16" style="edgeStyle=orthogonalEdgeStyle;orthogonalLoop=1;jettySize=auto;html=1;labelBackgroundColor=none;fontSize=10;fontColor=default;curved=1;" edge="1" parent="1" source="JTxRaQrFb4YPlkqaMSQB-11" target="JTxRaQrFb4YPlkqaMSQB-14">
          <mxGeometry relative="1" as="geometry" />
        </mxCell>
        <mxCell id="JTxRaQrFb4YPlkqaMSQB-11" value="Serching with booking" style="ellipse;whiteSpace=wrap;html=1;fontSize=10;fontColor=default;fillColor=#99CCFF;" vertex="1" parent="1">
          <mxGeometry x="270" y="185" width="90" height="50" as="geometry" />
        </mxCell>
        <mxCell id="JTxRaQrFb4YPlkqaMSQB-14" value="Serching room" style="ellipse;whiteSpace=wrap;html=1;fontSize=10;fontColor=default;fillColor=#99CCFF;" vertex="1" parent="1">
          <mxGeometry x="380" y="95" width="90" height="50" as="geometry" />
        </mxCell>
        <mxCell id="JTxRaQrFb4YPlkqaMSQB-17" style="edgeStyle=orthogonalEdgeStyle;orthogonalLoop=1;jettySize=auto;html=1;entryX=0.5;entryY=1;entryDx=0;entryDy=0;labelBackgroundColor=none;fontSize=10;fontColor=default;curved=1;" edge="1" parent="1" source="JTxRaQrFb4YPlkqaMSQB-15" target="JTxRaQrFb4YPlkqaMSQB-14">
          <mxGeometry relative="1" as="geometry" />
        </mxCell>
        <mxCell id="JTxRaQrFb4YPlkqaMSQB-15" value="Serching without booking" style="ellipse;whiteSpace=wrap;html=1;fontSize=10;fontColor=default;fillColor=#99CCFF;" vertex="1" parent="1">
          <mxGeometry x="490" y="185" width="90" height="50" as="geometry" />
        </mxCell>
        <mxCell id="JTxRaQrFb4YPlkqaMSQB-18" value="inherit" style="text;html=1;align=center;verticalAlign=middle;resizable=0;points=[];autosize=1;strokeColor=none;fillColor=none;fontSize=10;fontColor=default;" vertex="1" parent="1">
          <mxGeometry x="400" y="205" width="50" height="30" as="geometry" />
        </mxCell>
      </root>
    </mxGraphModel>
  </diagram>
</mxfile>
